<?xml version="1.0" encoding="UTF-8" standalone="no"?>
<!DOCTYPE svg PUBLIC "-//W3C//DTD SVG 1.1//EN" "http://www.w3.org/Graphics/SVG/1.1/DTD/svg11.dtd">
<svg version="1.1" xmlns="http://www.w3.org/2000/svg" xmlns:xlink="http://www.w3.org/1999/xlink" preserveAspectRatio="xMidYMid meet" viewBox="0 0 800 800" width="32" height="32"><defs><path d="" id="b55YEguNWD"></path><path d="M293.94 306.06L317.94 306.06L317.94 330.06L293.94 330.06L293.94 306.06Z" id="f2AdTTgYFk"></path><path d="M117 280.86C117 490.51 400 800 400 800C400 800 683 490.51 683 280.86C683 126.31 556.46 1.32 400 1.32C243.54 1.32 117 126.31 117 280.86ZM298.93 280.86C298.93 225.75 344.21 181.02 400 181.02C455.79 181.02 501.07 225.75 501.07 280.86C501.07 335.97 455.79 380.69 400 380.69C344.21 380.69 298.93 335.97 298.93 280.86Z" id="nldWWdI5Y"></path></defs><g><g><g><g><use xlink:href="#b55YEguNWD" opacity="1" fill-opacity="0" stroke="#000000" stroke-width="1" stroke-opacity="1"></use></g></g><g><use xlink:href="#f2AdTTgYFk" opacity="1" fill="#000000" fill-opacity="0"></use><g><use xlink:href="#f2AdTTgYFk" opacity="1" fill-opacity="0" stroke="#000000" stroke-width="1" stroke-opacity="0"></use></g></g><g><use xlink:href="#nldWWdI5Y" opacity="1" fill="#3f8373" fill-opacity="1"></use><g><use xlink:href="#nldWWdI5Y" opacity="1" fill-opacity="0" stroke="#000000" stroke-width="1" stroke-opacity="0"></use></g></g></g></g></svg>